<svg width="402" height="384" viewBox="0 0 402 384" fill="none" xmlns="http://www.w3.org/2000/svg">
<path d="M312.141 30.9887L391.595 158.211C404.508 178.886 404.508 205.114 391.595 225.79L312.141 353.011C300.486 371.672 280.038 383.01 258.037 383.01L143.522 383.01C121.521 383.01 101.073 371.672 89.4189 353.011L9.96439 225.79C-2.9484 205.114 -2.94844 178.886 9.96439 158.211L89.4189 30.9887C101.073 12.328 121.521 0.990203 143.522 0.990204L258.037 0.990209C280.038 0.99021 300.486 12.328 312.141 30.9887Z" fill="#5849FF"/>
<path d="M261.718 89.2172C261.718 17.2633 134.551 20.4176 134.551 89.2173C55.2519 89.2173 70.7265 191.928 134.551 191.928H263.3C334.346 191.928 346.451 89.2172 261.718 89.2172Z" fill="url(#paint0_linear_519_4)"/>
<path d="M229.951 99.5438C232.836 99.5438 235.175 97.2052 235.175 94.3204C235.175 91.4356 232.836 89.097 229.951 89.097C227.452 89.097 225.362 90.8526 224.849 93.1979C219.586 93.8638 214.954 95.7932 211.413 98.4265C207.018 101.695 204.159 106.177 204.159 110.782V183.923C204.159 185.186 204.206 186.427 204.297 187.647L206.529 247.159L209.362 247.053L207.678 202.14C211.819 212.436 219.083 220.609 226.559 226.702C232.291 231.373 238.188 234.857 242.997 237.177C245.401 238.337 247.547 239.212 249.277 239.801C250.945 240.369 252.386 240.727 253.306 240.727V237.892C252.901 237.892 251.857 237.685 250.19 237.117C248.586 236.571 246.547 235.742 244.229 234.624C239.591 232.386 233.887 229.017 228.35 224.504C221.745 219.121 215.433 212.163 211.407 203.6C215.018 208.958 219.712 214.084 224.87 218.662C236.083 228.615 249.732 236.191 259.624 237.872L260.099 235.077C250.932 233.519 237.757 226.31 226.752 216.542C222.294 212.585 218.231 208.242 214.964 203.738C220.869 209.541 228.728 215.002 237.3 219.725C255.03 229.495 276.163 236.297 289.984 236.297V233.462C276.833 233.462 256.187 226.896 238.668 217.242C229.93 212.427 222.058 206.891 216.339 201.106C210.797 195.501 207.436 189.828 207.027 184.476C207.026 184.183 207.024 183.841 207.022 183.507C207.02 183.161 207.017 182.823 207.014 182.557C207.012 182.424 207.01 182.307 207.009 182.216C207.008 182.193 207.008 182.171 207.007 182.15C207.007 182.13 207.007 182.112 207.006 182.095L207.005 182.067L207.005 182.044L207.004 182.032L207.004 182.019C207.003 182.01 207.003 182 207.002 181.989C207.002 181.983 207.001 181.977 207.001 181.969C207.001 181.966 207 181.961 207 181.957C207 181.953 206.999 181.948 206.999 181.943L206.997 181.925L206.997 181.916C206.996 181.911 206.995 181.905 206.995 181.901L206.994 181.892V136.806H228.888C234.57 136.918 243.072 138.259 250.101 141.86C255.875 144.818 260.518 149.212 261.966 155.631C260.04 156.4 258.68 158.283 258.68 160.483C258.68 163.368 261.018 165.707 263.903 165.707C266.788 165.707 269.127 163.368 269.127 160.483C269.127 157.907 267.261 155.766 264.807 155.338C263.217 147.693 257.746 142.591 251.393 139.336C247.756 137.473 243.783 136.185 239.974 135.338C243.784 134.462 247.758 133.15 251.397 131.274C258.056 127.842 263.761 122.414 265.016 114.225C267.366 113.715 269.127 111.623 269.127 109.12C269.127 106.235 266.788 103.897 263.903 103.897C261.018 103.897 258.68 106.235 258.68 109.12C258.68 111.397 260.137 113.334 262.17 114.049C261.01 120.926 256.189 125.615 250.098 128.754C243.066 132.378 234.564 133.795 228.88 133.971H206.994V110.782C206.994 107.366 209.157 103.638 213.105 100.701C216.2 98.3997 220.301 96.6632 225.016 96.035C225.725 98.0776 227.667 99.5438 229.951 99.5438Z" fill="white"/>
<path d="M171.879 99.5438C168.995 99.5438 166.656 97.2052 166.656 94.3204C166.656 91.4356 168.995 89.097 171.879 89.097C174.379 89.097 176.468 90.8526 176.982 93.1979C182.244 93.8638 186.877 95.7932 190.417 98.4265C194.812 101.695 197.672 106.177 197.672 110.782V183.923C197.672 184.462 197.662 184.997 197.643 185.528L196.605 243.587L193.771 243.537L194.543 200.326C190.091 211.647 181.487 220.638 172.691 227.266C166.327 232.063 159.801 235.673 154.524 238.086C151.886 239.294 149.547 240.207 147.683 240.823C145.889 241.415 144.367 241.79 143.449 241.79V238.955C143.855 238.955 144.976 238.731 146.794 238.131C148.543 237.553 150.785 236.679 153.345 235.508C158.466 233.166 164.81 229.656 170.985 225.002C178.584 219.276 185.833 211.891 190.304 202.885C186.285 208.544 180.941 213.966 175.091 218.785C162.969 228.771 148.417 236.372 138.548 238.049L138.073 235.254C147.263 233.692 161.364 226.42 173.289 216.597C177.055 213.494 180.578 210.158 183.641 206.697C178.191 211.427 171.534 215.879 164.385 219.822C146.583 229.64 125.377 236.491 111.555 236.491V233.656C124.704 233.656 145.423 227.042 163.016 217.339C171.791 212.5 179.7 206.939 185.447 201.136C191.017 195.512 194.393 189.827 194.804 184.475C194.805 184.183 194.806 183.841 194.809 183.507C194.811 183.161 194.814 182.823 194.817 182.557C194.819 182.424 194.82 182.307 194.822 182.216C194.823 182.171 194.824 182.13 194.824 182.095C194.825 182.078 194.825 182.061 194.826 182.044L194.827 182.019L194.828 182.003L194.828 181.989C194.829 181.983 194.829 181.977 194.83 181.969C194.83 181.966 194.83 181.961 194.83 181.957C194.831 181.953 194.831 181.948 194.832 181.943L194.833 181.925L194.834 181.916C194.835 181.911 194.835 181.905 194.836 181.901L194.837 181.892V136.806H172.943C167.261 136.918 158.759 138.259 151.73 141.86C145.956 144.818 141.313 149.212 139.864 155.631C141.79 156.4 143.151 158.283 143.151 160.483C143.151 163.368 140.812 165.707 137.927 165.707C135.043 165.707 132.704 163.368 132.704 160.483C132.704 157.907 134.57 155.766 137.024 155.338C138.614 147.693 144.084 142.591 150.437 139.336C154.075 137.473 158.048 136.185 161.856 135.338C158.047 134.462 154.072 133.15 150.434 131.274C143.774 127.842 138.07 122.414 136.815 114.225C134.465 113.715 132.704 111.623 132.704 109.12C132.704 106.235 135.043 103.897 137.927 103.897C140.812 103.897 143.151 106.235 143.151 109.12C143.151 111.397 141.693 113.334 139.66 114.049C140.82 120.926 145.641 125.615 151.733 128.754C158.764 132.378 167.266 133.795 172.951 133.971H194.837V110.782C194.837 107.366 192.674 103.638 188.726 100.701C185.631 98.3997 181.529 96.6632 176.815 96.035C176.105 98.0776 174.164 99.5438 171.879 99.5438Z" fill="white"/>
<path d="M124.058 354.102C124.892 354.102 125.62 353.986 126.243 353.755C126.876 353.514 127.364 353.157 127.705 352.685C128.057 352.203 128.233 351.6 128.233 350.876C128.233 350.314 128.127 349.846 127.916 349.475C127.715 349.103 127.439 348.802 127.087 348.57C126.736 348.339 126.334 348.153 125.882 348.013C125.439 347.872 124.977 347.757 124.495 347.666C123.962 347.556 123.475 347.44 123.033 347.32C122.601 347.199 122.254 347.018 121.993 346.777C121.732 346.536 121.601 346.184 121.601 345.722C121.601 345.159 121.817 344.717 122.249 344.396C122.691 344.064 123.284 343.898 124.028 343.898C124.892 343.898 125.535 344.089 125.957 344.471C126.379 344.853 126.605 345.38 126.635 346.054H128.022C128.002 345.069 127.655 344.285 126.982 343.702C126.309 343.11 125.334 342.813 124.058 342.813C123.274 342.813 122.591 342.934 122.008 343.175C121.425 343.416 120.968 343.763 120.637 344.215C120.315 344.667 120.154 345.21 120.154 345.843C120.154 346.506 120.315 347.033 120.637 347.425C120.968 347.807 121.4 348.103 121.933 348.314C122.475 348.525 123.068 348.696 123.711 348.827C124.264 348.937 124.771 349.063 125.233 349.203C125.696 349.334 126.067 349.535 126.349 349.806C126.64 350.068 126.786 350.454 126.786 350.967C126.786 351.59 126.565 352.087 126.123 352.459C125.681 352.821 125.002 353.001 124.088 353.001C123.214 353.001 122.521 352.805 122.008 352.414C121.506 352.022 121.235 351.394 121.194 350.53H119.823C119.823 351.223 119.979 351.841 120.29 352.383C120.602 352.916 121.069 353.338 121.692 353.649C122.325 353.951 123.113 354.102 124.058 354.102Z" fill="#C3B4FF"/>
<path d="M132.904 353.951H134.245V349.354L138.103 342.964H136.581L133.959 347.41L133.612 348.028H133.537L133.19 347.41L130.568 342.964H129.045L132.904 349.354V353.951Z" fill="#C3B4FF"/>
<path d="M143.324 354.102C144.158 354.102 144.886 353.986 145.509 353.755C146.142 353.514 146.629 353.157 146.971 352.685C147.323 352.203 147.499 351.6 147.499 350.876C147.499 350.314 147.393 349.846 147.182 349.475C146.981 349.103 146.705 348.802 146.353 348.57C146.001 348.339 145.6 348.153 145.147 348.013C144.705 347.872 144.243 347.757 143.761 347.666C143.228 347.556 142.741 347.44 142.299 347.32C141.867 347.199 141.52 347.018 141.259 346.777C140.998 346.536 140.867 346.184 140.867 345.722C140.867 345.159 141.083 344.717 141.515 344.396C141.957 344.064 142.55 343.898 143.294 343.898C144.158 343.898 144.801 344.089 145.223 344.471C145.645 344.853 145.871 345.38 145.901 346.054H147.288C147.267 345.069 146.921 344.285 146.248 343.702C145.574 343.11 144.6 342.813 143.324 342.813C142.54 342.813 141.857 342.934 141.274 343.175C140.691 343.416 140.234 343.763 139.903 344.215C139.581 344.667 139.42 345.21 139.42 345.843C139.42 346.506 139.581 347.033 139.903 347.425C140.234 347.807 140.666 348.103 141.199 348.314C141.741 348.525 142.334 348.696 142.977 348.827C143.53 348.937 144.037 349.063 144.499 349.203C144.962 349.334 145.333 349.535 145.615 349.806C145.906 350.068 146.052 350.454 146.052 350.967C146.052 351.59 145.831 352.087 145.389 352.459C144.946 352.821 144.268 353.001 143.354 353.001C142.48 353.001 141.787 352.805 141.274 352.414C140.772 352.022 140.5 351.394 140.46 350.53H139.089C139.089 351.223 139.245 351.841 139.556 352.383C139.867 352.916 140.335 353.338 140.958 353.649C141.591 353.951 142.379 354.102 143.324 354.102Z" fill="#C3B4FF"/>
<path d="M156.461 344.139V342.964H148.021V344.139H151.578V353.951H152.919V344.139H156.461Z" fill="#C3B4FF"/>
<path d="M158.359 353.951H165.955V352.775H159.686V348.872H165.217V347.772H159.686V344.139H165.955V342.964H158.359V353.951Z" fill="#C3B4FF"/>
<path d="M168.618 353.951H169.914L169.899 345.044V344.456H169.989L170.185 345.044L173.441 353.951H174.797L178.068 345.029L178.248 344.456H178.339V353.951H179.635V342.964H177.54L174.149 352.308H174.074L170.668 342.964H168.618V353.951Z" fill="#C3B4FF"/>
<path d="M186.477 354.102C187.311 354.102 188.039 353.986 188.662 353.755C189.295 353.514 189.783 353.157 190.124 352.685C190.476 352.203 190.652 351.6 190.652 350.876C190.652 350.314 190.546 349.846 190.335 349.475C190.134 349.103 189.858 348.802 189.506 348.57C189.155 348.339 188.753 348.153 188.301 348.013C187.859 347.872 187.396 347.757 186.914 347.666C186.382 347.556 185.894 347.44 185.452 347.32C185.02 347.199 184.674 347.018 184.412 346.777C184.151 346.536 184.02 346.184 184.02 345.722C184.02 345.159 184.236 344.717 184.668 344.396C185.111 344.064 185.703 343.898 186.447 343.898C187.311 343.898 187.954 344.089 188.376 344.471C188.798 344.853 189.024 345.38 189.054 346.054H190.441C190.421 345.069 190.074 344.285 189.401 343.702C188.728 343.11 187.753 342.813 186.477 342.813C185.693 342.813 185.01 342.934 184.427 343.175C183.845 343.416 183.387 343.763 183.056 344.215C182.734 344.667 182.574 345.21 182.574 345.843C182.574 346.506 182.734 347.033 183.056 347.425C183.387 347.807 183.819 348.103 184.352 348.314C184.895 348.525 185.487 348.696 186.13 348.827C186.683 348.937 187.19 349.063 187.653 349.203C188.115 349.334 188.487 349.535 188.768 349.806C189.059 350.068 189.205 350.454 189.205 350.967C189.205 351.59 188.984 352.087 188.542 352.459C188.1 352.821 187.422 353.001 186.507 353.001C185.633 353.001 184.94 352.805 184.427 352.414C183.925 352.022 183.654 351.394 183.614 350.53H182.242C182.242 351.223 182.398 351.841 182.709 352.383C183.021 352.916 183.488 353.338 184.111 353.649C184.744 353.951 185.533 354.102 186.477 354.102Z" fill="#C3B4FF"/>
<path d="M197.244 353.951H198.571V348.977H204.901V353.951H206.242V342.964H204.901V347.802H198.571V342.964H197.244V353.951Z" fill="#C3B4FF"/>
<path d="M208.053 353.951H209.365L210.374 351.178H215.544L216.539 353.951H217.88L213.901 342.964H212.047L208.053 353.951ZM210.706 350.138L212.077 346.355L212.906 344.079H212.997L213.811 346.325L215.197 350.138H210.706Z" fill="#C3B4FF"/>
<path d="M223.556 354.102C224.41 354.102 225.174 353.951 225.847 353.649C226.531 353.338 227.083 352.906 227.505 352.353C227.937 351.791 228.193 351.138 228.274 350.394H226.902C226.812 350.947 226.606 351.414 226.284 351.796C225.963 352.167 225.566 352.449 225.094 352.64C224.621 352.831 224.109 352.926 223.556 352.926C222.753 352.926 222.069 352.77 221.507 352.459C220.944 352.147 220.517 351.715 220.226 351.163C219.944 350.61 219.804 349.967 219.804 349.234V347.696C219.804 346.973 219.944 346.335 220.226 345.782C220.507 345.23 220.924 344.798 221.477 344.486C222.039 344.165 222.733 344.004 223.556 344.004C224.099 344.004 224.601 344.099 225.064 344.29C225.536 344.471 225.933 344.747 226.254 345.119C226.586 345.491 226.802 345.958 226.902 346.521H228.274C228.183 345.777 227.927 345.129 227.505 344.577C227.083 344.024 226.536 343.597 225.862 343.295C225.189 342.984 224.421 342.828 223.556 342.828C222.501 342.828 221.587 343.044 220.813 343.476C220.04 343.898 219.442 344.526 219.02 345.36C218.598 346.184 218.387 347.209 218.387 348.435V348.495C218.387 350.334 218.844 351.73 219.758 352.685C220.683 353.629 221.949 354.102 223.556 354.102Z" fill="#C3B4FF"/>
<path d="M230.757 353.951H232.084V350.861L234.179 348.646L237.856 353.951H239.484L235.128 347.636L239.333 342.964H237.69L232.084 349.203V342.964H230.757V353.951Z" fill="#C3B4FF"/>
<path d="M244.495 354.102C245.329 354.102 246.058 353.986 246.681 353.755C247.314 353.514 247.801 353.157 248.143 352.685C248.494 352.203 248.67 351.6 248.67 350.876C248.67 350.314 248.565 349.846 248.354 349.475C248.153 349.103 247.876 348.802 247.525 348.57C247.173 348.339 246.771 348.153 246.319 348.013C245.877 347.872 245.415 347.757 244.933 347.666C244.4 347.556 243.913 347.44 243.471 347.32C243.039 347.199 242.692 347.018 242.431 346.777C242.169 346.536 242.039 346.184 242.039 345.722C242.039 345.159 242.255 344.717 242.687 344.396C243.129 344.064 243.722 343.898 244.465 343.898C245.329 343.898 245.972 344.089 246.394 344.471C246.816 344.853 247.043 345.38 247.073 346.054H248.459C248.439 345.069 248.092 344.285 247.419 343.702C246.746 343.11 245.772 342.813 244.495 342.813C243.712 342.813 243.029 342.934 242.446 343.175C241.863 343.416 241.406 343.763 241.074 344.215C240.753 344.667 240.592 345.21 240.592 345.843C240.592 346.506 240.753 347.033 241.074 347.425C241.406 347.807 241.838 348.103 242.37 348.314C242.913 348.525 243.506 348.696 244.149 348.827C244.701 348.937 245.209 349.063 245.671 349.203C246.133 349.334 246.505 349.535 246.786 349.806C247.078 350.068 247.223 350.454 247.223 350.967C247.223 351.59 247.002 352.087 246.56 352.459C246.118 352.821 245.44 353.001 244.526 353.001C243.651 353.001 242.958 352.805 242.446 352.414C241.943 352.022 241.672 351.394 241.632 350.53H240.26C240.26 351.223 240.416 351.841 240.728 352.383C241.039 352.916 241.506 353.338 242.129 353.649C242.762 353.951 243.551 354.102 244.495 354.102Z" fill="#C3B4FF"/>
<path d="M254.559 353.951H262.135V352.756H256.326L259.943 348.944C260.619 348.257 261.121 347.618 261.448 347.029C261.775 346.44 261.939 345.807 261.939 345.131C261.939 344.455 261.786 343.871 261.481 343.38C261.175 342.889 260.75 342.513 260.204 342.251C259.659 341.989 259.021 341.859 258.29 341.859C257.112 341.859 256.174 342.197 255.476 342.873C254.777 343.538 254.434 344.46 254.445 345.638H255.819C255.808 344.864 255.999 344.248 256.392 343.789C256.785 343.32 257.395 343.086 258.225 343.086C258.89 343.086 259.424 343.255 259.828 343.593C260.243 343.931 260.45 344.406 260.45 345.017V345.557C260.45 345.928 260.303 346.337 260.008 346.784C259.724 347.22 259.332 347.711 258.83 348.257L254.559 352.805V353.951Z" fill="#C3B4FF"/>
<path d="M268.009 354.098C268.838 354.098 269.558 353.907 270.169 353.525C270.779 353.133 271.254 352.5 271.592 351.627C271.941 350.755 272.116 349.593 272.116 348.142V347.847C272.116 345.764 271.761 344.248 271.052 343.298C270.343 342.349 269.329 341.875 268.009 341.875C266.689 341.875 265.674 342.349 264.965 343.298C264.256 344.248 263.902 345.764 263.902 347.847V348.142C263.902 349.593 264.071 350.755 264.409 351.627C264.747 352.5 265.221 353.133 265.832 353.525C266.454 353.907 267.18 354.098 268.009 354.098ZM268.009 352.871C267.136 352.871 266.476 352.56 266.029 351.938C265.581 351.316 265.358 350.471 265.358 349.402V346.571C265.358 345.524 265.571 344.684 265.996 344.051C266.432 343.408 267.103 343.086 268.009 343.086C268.914 343.086 269.58 343.408 270.005 344.051C270.43 344.684 270.643 345.524 270.643 346.571V349.402C270.643 350.471 270.419 351.316 269.972 351.938C269.536 352.56 268.881 352.871 268.009 352.871Z" fill="#C3B4FF"/>
<path d="M273.91 353.951H281.487V352.756H275.678L279.294 348.944C279.97 348.257 280.472 347.618 280.799 347.029C281.127 346.44 281.29 345.807 281.29 345.131C281.29 344.455 281.138 343.871 280.832 343.38C280.527 342.889 280.101 342.513 279.556 342.251C279.01 341.989 278.372 341.859 277.641 341.859C276.463 341.859 275.525 342.197 274.827 342.873C274.129 343.538 273.785 344.46 273.796 345.638H275.17C275.16 344.864 275.35 344.248 275.743 343.789C276.136 343.32 276.747 343.086 277.576 343.086C278.241 343.086 278.776 343.255 279.179 343.593C279.594 343.931 279.801 344.406 279.801 345.017V345.557C279.801 345.928 279.654 346.337 279.359 346.784C279.076 347.22 278.683 347.711 278.181 348.257L273.91 352.805V353.951Z" fill="#C3B4FF"/>
<path d="M287.18 354.114C287.998 354.114 288.713 353.973 289.323 353.689C289.934 353.395 290.403 352.98 290.731 352.445C291.069 351.911 291.238 351.289 291.238 350.58C291.238 349.849 291.031 349.227 290.616 348.715C290.202 348.191 289.64 347.858 288.931 347.717V347.618C289.542 347.466 290.038 347.149 290.42 346.669C290.802 346.189 290.993 345.617 290.993 344.951C290.993 344.329 290.84 343.789 290.534 343.331C290.229 342.862 289.803 342.502 289.258 342.251C288.713 341.989 288.074 341.859 287.344 341.859C286.536 341.859 285.833 342.011 285.233 342.317C284.644 342.622 284.191 343.053 283.875 343.609C283.558 344.166 283.405 344.831 283.416 345.606H284.775C284.764 344.733 284.987 344.089 285.445 343.675C285.914 343.26 286.52 343.053 287.262 343.053C287.916 343.053 288.456 343.211 288.882 343.528C289.318 343.844 289.536 344.291 289.536 344.869V345.508C289.536 346.009 289.323 346.418 288.898 346.735C288.473 347.051 287.905 347.209 287.196 347.209H286.182V348.322H287.344C288.064 348.322 288.642 348.486 289.078 348.813C289.525 349.129 289.749 349.598 289.749 350.22V350.793C289.749 351.458 289.514 351.982 289.045 352.364C288.587 352.735 287.976 352.92 287.213 352.92C286.46 352.92 285.849 352.724 285.38 352.331C284.922 351.938 284.693 351.311 284.693 350.449H283.318C283.296 351.573 283.629 352.467 284.316 353.133C285.015 353.787 285.969 354.114 287.18 354.114Z" fill="#C3B4FF"/>
<path d="M110.516 281.658V233.524H132.635C136.376 233.524 139.48 234.141 141.945 235.373C144.454 236.606 146.324 238.366 147.557 240.655C148.833 242.9 149.472 245.585 149.472 248.71C149.472 251.307 148.965 253.64 147.953 255.709C146.941 257.734 145.466 259.385 143.529 260.661C141.592 261.894 139.26 262.664 136.53 262.972L137.125 261.388L150.066 281.658H139.304L128.343 264.029H118.835V257.096H131.05C132.899 257.096 134.462 256.832 135.738 256.304C137.059 255.775 138.071 255.027 138.775 254.059C139.48 253.09 139.832 251.902 139.832 250.493V247.984C139.832 246.576 139.458 245.387 138.709 244.419C138.005 243.406 136.993 242.658 135.672 242.174C134.396 241.646 132.855 241.381 131.05 241.381H117.911L119.694 239.533V281.658H110.516Z" fill="white"/>
<path d="M176.626 282.318C171.608 282.318 167.36 281.35 163.882 279.413C160.449 277.476 157.83 274.681 156.025 271.027C154.265 267.33 153.384 262.906 153.384 257.756V257.558C153.384 253.508 153.934 249.965 155.035 246.928C156.135 243.847 157.676 241.271 159.657 239.203C161.682 237.134 164.125 235.571 166.986 234.515C169.891 233.458 173.104 232.93 176.626 232.93C181.336 232.93 185.429 233.876 188.907 235.769C192.384 237.618 195.069 240.369 196.962 244.023C198.899 247.676 199.867 252.188 199.867 257.558V257.756C199.867 261.63 199.361 265.085 198.348 268.122C197.336 271.159 195.839 273.735 193.859 275.847C191.922 277.96 189.501 279.567 186.596 280.667C183.734 281.768 180.411 282.318 176.626 282.318ZM176.626 274.329C179.487 274.329 181.93 273.801 183.955 272.744C185.979 271.688 187.52 270.191 188.576 268.254C189.677 266.318 190.227 263.985 190.227 261.256V253.993C190.227 252.1 189.941 250.361 189.369 248.776C188.797 247.148 187.938 245.761 186.794 244.617C185.693 243.428 184.285 242.526 182.568 241.91C180.851 241.249 178.871 240.919 176.626 240.919C173.588 240.919 171.057 241.492 169.033 242.636C167.052 243.736 165.555 245.277 164.543 247.258C163.53 249.195 163.024 251.44 163.024 253.993V261.256C163.024 263.28 163.332 265.107 163.949 266.736C164.565 268.364 165.445 269.751 166.59 270.895C167.778 271.996 169.209 272.854 170.881 273.47C172.554 274.043 174.469 274.329 176.626 274.329Z" fill="white"/>
<path d="M226.213 282.318C221.195 282.318 216.947 281.35 213.469 279.413C210.036 277.476 207.417 274.681 205.612 271.027C203.852 267.33 202.971 262.906 202.971 257.756V257.558C202.971 253.508 203.521 249.965 204.622 246.928C205.722 243.847 207.263 241.271 209.244 239.203C211.269 237.134 213.712 235.571 216.573 234.515C219.478 233.458 222.691 232.93 226.213 232.93C230.922 232.93 235.016 233.876 238.494 235.769C241.971 237.618 244.656 240.369 246.549 244.023C248.486 247.676 249.454 252.188 249.454 257.558V257.756C249.454 261.63 248.948 265.085 247.935 268.122C246.923 271.159 245.426 273.735 243.446 275.847C241.509 277.96 239.088 279.567 236.183 280.667C233.321 281.768 229.998 282.318 226.213 282.318ZM226.213 274.329C229.074 274.329 231.517 273.801 233.542 272.744C235.566 271.688 237.107 270.191 238.163 268.254C239.264 266.318 239.814 263.985 239.814 261.256V253.993C239.814 252.1 239.528 250.361 238.956 248.776C238.383 247.148 237.525 245.761 236.381 244.617C235.28 243.428 233.872 242.526 232.155 241.91C230.438 241.249 228.457 240.919 226.213 240.919C223.175 240.919 220.644 241.492 218.62 242.636C216.639 243.736 215.142 245.277 214.13 247.258C213.117 249.195 212.611 251.44 212.611 253.993V261.256C212.611 263.28 212.919 265.107 213.535 266.736C214.152 268.364 215.032 269.751 216.177 270.895C217.365 271.996 218.796 272.854 220.468 273.47C222.141 274.043 224.056 274.329 226.213 274.329Z" fill="white"/>
<path d="M265.169 240.523H274.281V281.658H265.169V240.523ZM289.071 241.381H250.379V233.524H289.071V241.381Z" fill="white"/>
<path d="M95.3426 329.853H104.52V309.385H127.036V329.853H136.214V281.719H127.036V301.527H104.52V281.719H95.3426V329.853Z" fill="white"/>
<path d="M139.23 329.853H148.078L151.71 319.355H172.442L176.074 329.853H185.186L168.547 281.719H155.803L139.23 329.853ZM153.889 312.356L161.878 288.916H162.274L165.113 297.169L170.263 312.356H153.889Z" fill="white"/>
<path d="M206.368 330.513C210.241 330.513 213.719 329.809 216.8 328.401C219.881 326.992 222.39 325.033 224.327 322.524C226.264 319.971 227.409 317 227.761 313.61H218.385C217.857 316.472 216.47 318.672 214.225 320.213C211.98 321.754 209.361 322.524 206.368 322.524C202.098 322.524 198.753 321.358 196.332 319.025C193.955 316.692 192.766 313.5 192.766 309.451V302.188C192.766 298.358 193.888 295.233 196.133 292.812C198.422 290.347 201.834 289.114 206.368 289.114C209.273 289.114 211.848 289.862 214.093 291.359C216.338 292.812 217.769 294.99 218.385 297.896H227.761C227.409 294.55 226.286 291.623 224.393 289.114C222.501 286.605 220.013 284.646 216.932 283.238C213.851 281.829 210.329 281.125 206.368 281.125C201.658 281.125 197.542 282.071 194.021 283.964C190.543 285.813 187.858 288.564 185.965 292.217C184.072 295.871 183.126 300.383 183.126 305.753V305.951C183.126 313.698 185.107 319.729 189.068 324.043C193.074 328.357 198.841 330.513 206.368 330.513Z" fill="white"/>
<path d="M233.421 329.853H242.598V316.978L249.861 309.12L263.727 329.853H274.82L256.398 302.188L274.16 281.719H263.001L242.598 305.753V281.719H233.421V329.853Z" fill="white"/>
<path d="M292.66 330.513C296.578 330.513 299.989 329.985 302.895 328.929C305.8 327.828 308.067 326.2 309.695 324.043C311.324 321.842 312.139 319.091 312.139 315.789C312.139 312.4 311.39 309.737 309.894 307.8C308.441 305.863 306.46 304.388 303.951 303.376C301.442 302.364 298.669 301.593 295.632 301.065C293.343 300.625 291.318 300.207 289.557 299.811C287.84 299.37 286.498 298.732 285.529 297.896C284.605 297.059 284.143 295.827 284.143 294.198C284.143 292.305 284.891 290.831 286.388 289.774C287.928 288.674 289.997 288.124 292.594 288.124C295.588 288.124 297.855 288.762 299.395 290.038C300.936 291.315 301.75 293.12 301.838 295.453H311.148C311.06 290.963 309.431 287.463 306.262 284.954C303.093 282.401 298.537 281.125 292.594 281.125C288.941 281.125 285.749 281.675 283.02 282.775C280.291 283.832 278.156 285.416 276.616 287.529C275.119 289.598 274.371 292.173 274.371 295.255C274.371 298.072 275.031 300.383 276.351 302.188C277.672 303.948 279.499 305.357 281.832 306.413C284.209 307.47 286.938 308.306 290.019 308.922C292.352 309.363 294.443 309.825 296.292 310.309C298.141 310.793 299.615 311.497 300.716 312.422C301.816 313.346 302.366 314.711 302.366 316.516C302.366 318.672 301.574 320.345 299.989 321.534C298.405 322.722 296.028 323.316 292.858 323.316C289.733 323.316 287.246 322.656 285.397 321.336C283.548 319.971 282.58 317.814 282.492 314.865H273.182C273.182 317.946 273.908 320.675 275.361 323.052C276.814 325.385 278.993 327.212 281.898 328.533C284.803 329.853 288.391 330.513 292.66 330.513Z" fill="white"/>
<defs>
<linearGradient id="paint0_linear_519_4" x1="200.78" y1="0.990204" x2="200.78" y2="383.01" gradientUnits="userSpaceOnUse">
<stop stop-color="#3CDF7E"/>
<stop offset="1" stop-color="#47F9A1"/>
</linearGradient>
</defs>
</svg>
