<svg width="1440" height="7733" viewBox="0 0 1440 7733" fill="none" xmlns="http://www.w3.org/2000/svg">
<path d="M1459.73 2.63672C733 145.5 464.628 400 425.5 596M156.5 1084C204 1463 362.26 1712.02 584.5 1927C726.508 2064.37 654.318 2601.1 530.221 3066M156.5 1084C212.989 906.023 257.5 821 425.5 596M156.5 1084C52 1331 -91.4999 1832 91.0001 2092.5C394.196 2525.28 -243.131 3007.02 -507 3420.5C-665.167 3712 -953.8 4376.6 -843 4703C-704.5 5111 91.0001 5919.5 91.0001 6320C91.0001 6348.31 89.6112 6379.97 86.8831 6414.5M425.5 596C386.5 852.5 623.964 1886.31 1071 2014.5M1071 2014.5C1566.07 2014.5 1673.82 2693.49 1608.5 3066C1544.5 3431 1171.01 3874.4 1128.5 4002C1071.5 4233.33 1087.7 4749.9 1608.5 4965.5C2129.3 5181.1 2546.17 6220.67 2689.5 6713.5M1071 2014.5C1473.41 2250.82 1368.72 2577.27 1197.02 2831.5M-602.5 8192C-216.368 7819.81 51.014 6868.55 86.8831 6414.5M216 7908C779.5 7493 650 6378.5 584.5 6123.5C558.674 6022.95 465.996 5932.59 375 5844.41M1029 8345C1269.5 7966.5 2380.12 6658.47 861.5 5715.5C584.5 5543.5 584.5 5289.5 584.5 5070M530.221 3066C431.014 3437.66 298.634 3763.4 216 3802.5C142 3874.67 -0.0999393 4087.4 23.5001 4361C37.6075 4524.55 126.268 4716.69 193.898 4900.5M530.221 3066C280.314 3317 -245 3792.7 -347 3687.5M1197.02 2831.5C1124.4 2939.01 1039.8 3033.6 976.5 3103C663.913 3445.67 669 3629 584.5 3765.5C526.897 3814.52 473.988 3999.43 523.234 4395.5M1197.02 2831.5C1116.67 3023.5 980.087 3443.3 1076.5 3586.5C1168.66 3723.39 1308.76 4502.41 1297.35 5004.5M675.5 8345C1029.5 8006.5 841.5 7254 810.5 6622.5C779.5 5991 1076.5 5682.5 1238 5362.5C1276 5287.22 1293.84 5158.96 1297.35 5004.5M193.898 4900.5C267.689 5101.06 316.443 5291.71 216 5424.5C99.4019 5578.65 235.216 5708.96 375 5844.41M193.898 4900.5C177.266 5002 79.3 5242.7 -179.5 5393.5C-503 5582 -990 6427 -843 6713.5M523.234 4395.5C372.49 4628 125.7 5187 344.5 5563C602.262 6005.95 825.383 5655.28 1218.12 6232.5M523.234 4395.5C544.782 4568.8 515.672 4809.53 584.5 5070M437 8067C868.5 7740.83 1643.6 6940.6 1292 6349C1266.71 6306.45 1242.1 6267.74 1218.12 6232.5M1297.35 5004.5C1429.24 5194.5 1697.6 5679.3 1716 6098.5M86.8831 6414.5C150.922 6506.83 283.6 6741.6 302 6942C325 7192.5 90.5 7812.5 44 7832M375 5844.41C381.667 6089.44 346.4 6633.5 152 6849.5C-42.4 7065.5 -88.3333 7507.17 -87 7701M584.5 5070C714.928 5324.17 1461.5 6048.5 2193.5 5940.5M1218.12 6232.5C1083.41 6631.17 577.7 7421.8 -367.5 7395" stroke="white" stroke-opacity="0.1" stroke-width="4"/>
</svg>
