<svg id="svg" version="1.1" xmlns="http://www.w3.org/2000/svg" xmlns:xlink="http://www.w3.org/1999/xlink" width="400" height="64.36781609195403" viewBox="0, 0, 400,64.36781609195403"><g id="svgg"><path id="path0" d="M204.667 0.823 C 204.667 1.093,204.592 1.360,204.500 1.417 C 204.390 1.485,204.333 11.280,204.333 30.260 C 204.333 49.309,204.390 59.000,204.500 59.000 C 204.592 59.000,204.667 59.225,204.667 59.500 L 204.667 60.000 208.917 60.000 C 213.056 60.000,213.167 59.991,213.167 59.667 C 213.167 59.479,213.278 59.333,213.421 59.333 C 213.570 59.333,213.716 59.126,213.776 58.830 C 213.831 58.553,213.942 58.286,214.022 58.237 C 214.102 58.187,214.167 51.865,214.168 44.032 C 214.168 36.268,214.217 29.185,214.276 28.292 L 214.384 26.667 214.838 26.667 C 215.642 26.667,216.333 26.464,216.333 26.229 C 216.333 25.989,216.269 25.991,223.833 25.991 C 229.192 25.991,229.000 25.983,229.000 26.231 C 229.000 26.493,229.500 26.661,230.292 26.664 C 230.661 26.666,230.833 26.746,230.833 26.917 C 230.833 27.056,230.981 27.167,231.167 27.167 C 231.438 27.167,231.500 27.278,231.500 27.766 C 231.500 28.224,231.578 28.385,231.833 28.452 C 232.017 28.500,232.170 28.661,232.175 28.811 C 232.225 30.577,232.275 30.871,232.545 31.022 C 232.815 31.173,232.833 32.080,232.833 44.995 C 232.833 60.090,232.793 59.333,233.601 59.333 C 234.056 59.333,234.167 59.399,234.167 59.667 C 234.167 59.990,234.278 60.000,237.883 60.000 C 240.552 60.000,241.656 60.056,241.800 60.200 C 241.956 60.356,242.046 60.351,242.208 60.179 C 242.375 60.002,242.375 59.943,242.208 59.882 C 241.900 59.769,241.955 59.378,242.333 59.000 C 242.858 58.475,242.858 29.417,242.333 29.250 C 242.022 29.151,242.000 28.998,242.000 26.905 C 242.000 24.778,241.983 24.667,241.667 24.667 C 241.370 24.667,241.333 24.556,241.333 23.667 C 241.333 22.778,241.296 22.667,241.000 22.667 C 240.742 22.667,240.667 22.556,240.667 22.173 C 240.667 21.849,240.552 21.617,240.333 21.500 C 240.150 21.402,240.000 21.220,240.000 21.095 C 240.000 20.849,239.647 20.667,239.172 20.667 C 239.007 20.667,238.833 20.517,238.785 20.333 C 238.737 20.150,238.583 20.000,238.444 20.000 C 238.304 20.000,238.142 19.850,238.083 19.667 C 238.025 19.483,237.833 19.333,237.655 19.333 C 237.478 19.333,237.333 19.226,237.333 19.095 C 237.333 18.963,237.183 18.808,237.000 18.750 C 236.817 18.692,236.667 18.546,236.667 18.426 C 236.667 18.215,235.973 18.000,235.289 18.000 C 235.105 18.000,234.857 17.869,234.740 17.708 C 234.328 17.145,216.500 17.200,216.500 17.765 C 216.500 17.948,216.203 18.000,215.167 18.000 C 213.954 18.000,213.556 17.858,214.000 17.583 C 214.741 17.126,214.078 1.000,213.318 1.000 C 213.235 1.000,213.167 0.850,213.167 0.667 C 213.167 0.342,213.056 0.333,208.917 0.333 L 204.667 0.333 204.667 0.823 M316.621 5.333 C 316.240 5.633,315.945 5.667,313.693 5.667 C 311.336 5.667,311.183 5.686,311.083 6.000 C 310.998 6.269,310.831 6.333,310.217 6.333 C 309.370 6.333,308.421 6.815,308.291 7.310 C 308.229 7.549,308.095 7.598,307.679 7.537 C 307.241 7.473,307.130 7.522,307.054 7.813 C 307.003 8.007,306.862 8.167,306.742 8.167 C 306.621 8.167,306.475 8.317,306.417 8.500 C 306.358 8.683,306.244 8.833,306.163 8.833 C 305.932 8.833,305.167 9.656,305.167 9.905 C 305.167 10.027,305.017 10.167,304.833 10.215 C 304.578 10.282,304.500 10.442,304.500 10.901 C 304.500 11.389,304.438 11.500,304.167 11.500 C 303.854 11.500,303.833 11.611,303.833 13.318 L 303.833 15.137 304.584 15.500 C 305.631 16.007,307.893 15.783,308.650 15.098 C 308.901 14.871,309.530 14.833,313.034 14.833 C 317.363 14.833,318.167 14.765,318.167 14.396 C 318.167 14.208,318.833 14.167,321.833 14.167 C 324.844 14.167,325.500 14.208,325.500 14.397 C 325.500 14.725,326.036 14.828,327.752 14.831 C 329.071 14.833,329.278 14.874,329.461 15.167 C 329.594 15.379,329.850 15.500,330.168 15.500 C 330.500 15.500,330.667 15.583,330.667 15.750 C 330.667 15.887,330.736 16.000,330.822 16.000 C 330.985 16.000,331.855 17.215,332.044 17.708 C 332.106 17.869,332.271 18.000,332.411 18.000 C 332.632 18.000,332.667 18.451,332.667 21.333 C 332.667 24.504,332.651 24.667,332.348 24.667 C 332.019 24.667,331.333 25.829,331.333 26.386 C 331.333 26.540,331.214 26.667,331.068 26.667 C 330.922 26.667,330.763 26.817,330.715 27.000 C 330.667 27.183,330.522 27.333,330.392 27.333 C 330.262 27.333,330.113 27.446,330.060 27.583 C 329.977 27.801,328.823 27.833,321.079 27.833 C 312.084 27.833,311.667 27.853,311.667 28.268 C 311.667 28.450,311.323 28.500,310.068 28.500 C 308.609 28.500,308.461 28.529,308.382 28.833 C 308.334 29.017,308.184 29.167,308.048 29.167 C 307.913 29.167,307.763 29.317,307.715 29.500 C 307.667 29.683,307.522 29.833,307.392 29.833 C 307.262 29.833,307.108 29.965,307.049 30.125 C 306.990 30.285,306.842 30.477,306.721 30.550 C 306.599 30.623,306.500 30.783,306.500 30.906 C 306.500 31.028,306.350 31.167,306.167 31.215 C 305.911 31.282,305.833 31.442,305.833 31.901 C 305.833 32.389,305.771 32.500,305.500 32.500 C 305.190 32.500,305.167 32.611,305.167 34.099 C 305.167 35.558,305.196 35.706,305.500 35.785 C 305.683 35.833,305.833 35.976,305.833 36.103 C 305.833 36.230,305.975 36.333,306.147 36.333 C 306.321 36.333,306.500 36.482,306.548 36.667 C 306.634 36.996,306.776 37.000,318.819 37.000 C 330.797 37.000,331.008 37.006,331.289 37.333 C 331.446 37.517,331.707 37.667,331.870 37.667 C 332.033 37.667,332.167 37.771,332.167 37.899 C 332.167 38.027,332.279 38.174,332.417 38.227 C 332.554 38.280,332.667 38.475,332.667 38.661 C 332.667 38.889,332.776 39.000,333.000 39.000 C 333.283 39.000,333.333 39.111,333.333 39.736 C 333.333 40.631,333.460 41.000,333.768 41.000 C 334.195 41.000,334.098 46.602,333.667 46.872 C 333.410 47.032,333.333 47.261,333.333 47.868 C 333.333 48.484,333.261 48.694,333.000 48.833 C 332.817 48.931,332.667 49.122,332.667 49.256 C 332.667 49.390,332.547 49.500,332.401 49.500 C 332.255 49.500,332.097 49.646,332.051 49.824 C 331.990 50.056,331.795 50.163,331.365 50.199 C 330.929 50.236,330.738 50.342,330.673 50.583 C 330.592 50.883,330.442 50.917,329.195 50.917 C 328.071 50.917,327.766 50.972,327.595 51.205 C 327.388 51.489,324.550 51.544,312.387 51.503 C 311.632 51.501,311.279 51.422,311.066 51.208 C 310.816 50.958,310.368 50.909,307.887 50.861 C 305.649 50.818,305.000 50.757,305.000 50.588 C 305.000 50.460,304.741 50.339,304.375 50.296 C 303.609 50.205,303.167 50.307,303.167 50.573 C 303.167 50.684,302.885 50.844,302.542 50.929 C 301.973 51.070,301.912 51.139,301.865 51.708 C 301.833 52.092,301.727 52.333,301.591 52.333 C 301.469 52.333,301.326 52.446,301.273 52.583 C 301.146 52.915,301.317 53.333,301.579 53.333 C 301.706 53.333,301.824 53.637,301.875 54.090 C 301.967 54.908,302.394 55.528,302.819 55.459 C 303.013 55.428,303.097 55.580,303.135 56.033 C 303.171 56.470,303.280 56.680,303.510 56.753 C 303.688 56.810,303.833 57.001,303.833 57.178 C 303.833 57.389,303.948 57.500,304.167 57.500 C 304.426 57.500,304.500 57.611,304.500 58.000 C 304.500 58.275,304.425 58.500,304.333 58.500 C 304.242 58.500,304.167 58.612,304.167 58.750 C 304.167 59.044,304.520 59.080,304.787 58.813 C 304.925 58.675,305.115 58.674,305.507 58.811 C 305.799 58.913,306.123 58.954,306.227 58.902 C 306.332 58.851,306.285 58.917,306.123 59.049 C 305.859 59.265,305.925 59.292,306.774 59.311 C 307.514 59.328,307.769 59.405,307.952 59.666 C 308.167 59.974,308.374 60.000,310.593 60.000 C 312.889 60.000,313.000 60.015,313.000 60.333 C 313.000 60.858,328.481 60.858,328.618 60.333 C 328.700 60.021,328.846 60.000,330.952 60.000 C 333.058 60.000,333.203 59.979,333.285 59.667 C 333.362 59.374,333.512 59.333,334.525 59.333 C 335.352 59.333,335.702 59.268,335.766 59.103 C 335.814 58.976,336.149 58.825,336.510 58.768 C 336.915 58.703,337.167 58.572,337.167 58.428 C 337.167 58.298,337.425 58.107,337.740 58.003 C 338.115 57.880,338.389 57.644,338.531 57.324 C 338.650 57.054,338.801 56.833,338.866 56.833 C 339.084 56.833,339.833 55.988,339.833 55.742 C 339.833 55.609,339.953 55.500,340.099 55.500 C 340.245 55.500,340.404 55.350,340.452 55.167 C 340.500 54.982,340.679 54.833,340.853 54.833 C 341.052 54.833,341.167 54.716,341.167 54.511 C 341.167 54.334,341.317 54.142,341.500 54.083 C 341.683 54.025,341.833 53.833,341.833 53.655 C 341.833 53.478,341.938 53.333,342.066 53.333 C 342.365 53.333,342.500 52.967,342.500 52.153 C 342.500 51.611,342.557 51.500,342.833 51.500 C 343.138 51.500,343.167 51.389,343.167 50.186 C 343.167 49.012,343.202 48.863,343.500 48.785 C 343.823 48.701,343.833 48.558,343.833 44.277 C 343.833 40.002,343.822 39.852,343.500 39.750 C 343.206 39.657,343.167 39.498,343.167 38.405 C 343.167 37.278,343.137 37.167,342.833 37.167 C 342.545 37.167,342.500 37.056,342.500 36.343 C 342.500 35.738,342.420 35.461,342.197 35.301 C 342.031 35.181,341.846 34.952,341.786 34.792 C 341.726 34.631,341.562 34.500,341.422 34.500 C 341.278 34.500,341.167 34.355,341.167 34.167 C 341.167 33.944,341.056 33.833,340.833 33.833 C 340.556 33.833,340.500 33.722,340.500 33.167 C 340.500 32.611,340.444 32.500,340.167 32.500 C 339.861 32.500,339.833 32.389,339.833 31.167 C 339.833 29.944,339.861 29.833,340.167 29.833 C 340.463 29.833,340.500 29.722,340.500 28.833 C 340.500 28.035,340.553 27.833,340.762 27.833 C 341.238 27.833,341.558 27.310,341.695 26.311 C 341.770 25.763,341.982 25.119,342.173 24.861 C 342.601 24.281,342.625 14.513,342.198 14.371 C 342.077 14.331,341.910 14.119,341.827 13.899 C 341.743 13.680,341.561 13.500,341.421 13.500 C 341.123 13.500,341.092 13.308,341.347 13.053 C 341.590 12.810,341.189 12.167,340.793 12.167 C 340.562 12.167,340.500 12.025,340.500 11.500 C 340.500 10.944,340.444 10.833,340.167 10.833 C 339.895 10.833,339.833 10.722,339.833 10.234 C 339.833 9.776,339.755 9.615,339.500 9.548 C 339.316 9.500,339.167 9.321,339.167 9.147 C 339.167 8.975,339.057 8.833,338.923 8.833 C 338.788 8.833,338.598 8.683,338.500 8.500 C 338.402 8.317,338.239 8.167,338.138 8.167 C 338.036 8.167,337.866 8.047,337.758 7.900 C 337.649 7.750,337.219 7.594,336.782 7.545 C 336.285 7.489,336.000 7.376,336.000 7.234 C 336.000 6.922,335.385 6.628,334.994 6.752 C 334.764 6.825,334.667 6.778,334.667 6.595 C 334.667 6.447,334.526 6.333,334.345 6.333 C 334.167 6.333,333.975 6.183,333.917 6.000 C 333.817 5.686,333.664 5.667,331.279 5.667 C 328.927 5.667,328.732 5.643,328.539 5.333 C 328.215 4.814,317.281 4.814,316.621 5.333 M355.089 5.982 C 355.034 6.155,354.841 6.336,354.661 6.383 C 354.156 6.515,354.142 59.333,354.647 59.333 C 354.821 59.333,355.000 59.482,355.048 59.667 C 355.135 59.997,355.276 60.000,369.132 60.000 C 382.988 60.000,383.129 59.997,383.215 59.667 C 383.295 59.361,383.442 59.333,384.972 59.333 C 386.235 59.333,386.704 59.272,386.893 59.083 C 387.045 58.931,387.457 58.832,387.946 58.831 C 388.808 58.828,389.054 58.730,389.201 58.329 C 389.255 58.182,389.533 58.056,389.856 58.033 C 390.762 57.967,390.971 57.847,391.085 57.326 C 391.179 56.900,391.268 56.833,391.752 56.833 C 392.164 56.833,392.339 56.746,392.417 56.500 C 392.475 56.317,392.637 56.167,392.777 56.167 C 392.917 56.167,393.070 56.017,393.118 55.833 C 393.217 55.456,393.968 55.368,394.295 55.695 C 394.443 55.843,394.516 55.819,394.602 55.594 C 394.670 55.418,394.623 55.243,394.487 55.159 C 394.362 55.081,394.318 54.960,394.389 54.889 C 394.460 54.818,394.581 54.862,394.659 54.987 C 394.736 55.113,394.920 55.169,395.067 55.113 C 395.368 54.997,395.417 54.738,395.167 54.583 C 395.075 54.527,395.000 54.260,395.000 53.990 C 395.000 53.553,395.144 53.417,395.542 53.480 C 395.610 53.491,395.667 53.350,395.667 53.167 C 395.667 52.944,395.778 52.833,396.000 52.833 C 396.278 52.833,396.333 52.722,396.333 52.167 C 396.333 51.676,396.401 51.500,396.591 51.500 C 396.955 51.500,397.655 50.656,397.661 50.210 C 397.664 50.004,397.817 49.742,398.000 49.628 C 398.264 49.463,398.333 49.239,398.333 48.554 C 398.333 47.836,398.390 47.671,398.667 47.583 C 398.945 47.495,399.000 47.331,399.000 46.583 C 399.000 45.836,399.055 45.672,399.333 45.583 C 399.636 45.487,399.667 45.331,399.667 43.905 C 399.667 42.968,399.734 42.333,399.833 42.333 C 399.943 42.333,400.000 38.722,400.000 31.833 C 400.000 24.944,399.943 21.333,399.833 21.333 C 399.737 21.333,399.667 20.800,399.667 20.068 C 399.667 18.942,399.630 18.792,399.333 18.715 C 399.048 18.640,399.000 18.488,399.000 17.661 C 399.000 16.542,398.891 16.167,398.566 16.167 C 398.410 16.167,398.333 15.969,398.333 15.568 C 398.333 15.109,398.255 14.948,398.000 14.882 C 397.758 14.818,397.665 14.652,397.661 14.272 C 397.656 13.698,397.012 12.833,396.591 12.833 C 396.444 12.833,396.333 12.690,396.333 12.500 C 396.333 12.278,396.222 12.167,396.000 12.167 C 395.729 12.167,395.667 12.056,395.667 11.568 C 395.667 11.109,395.589 10.948,395.333 10.882 C 395.150 10.834,395.000 10.688,395.000 10.559 C 395.000 10.429,394.869 10.274,394.708 10.214 C 394.548 10.154,394.319 9.969,394.199 9.803 C 394.079 9.636,393.803 9.500,393.585 9.500 C 393.336 9.500,393.150 9.377,393.083 9.167 C 393.025 8.983,392.870 8.833,392.739 8.833 C 392.607 8.833,392.350 8.683,392.167 8.500 C 391.944 8.278,391.611 8.167,391.167 8.167 C 390.708 8.167,390.500 8.094,390.500 7.934 C 390.500 7.629,390.132 7.500,389.256 7.500 C 388.677 7.500,388.522 7.435,388.451 7.164 C 388.316 6.646,387.340 6.333,385.858 6.333 C 384.679 6.333,384.530 6.298,384.452 6.000 C 384.318 5.490,355.251 5.472,355.089 5.982 M378.667 14.396 C 378.667 14.717,379.423 14.833,381.521 14.833 C 382.948 14.833,383.333 14.882,383.333 15.063 C 383.333 15.291,384.020 15.500,384.771 15.500 C 384.989 15.500,385.167 15.572,385.167 15.659 C 385.167 15.908,385.988 16.667,386.258 16.667 C 386.391 16.667,386.500 16.786,386.500 16.932 C 386.500 17.078,386.648 17.236,386.828 17.284 C 387.008 17.331,387.201 17.511,387.256 17.685 C 387.311 17.858,387.463 18.000,387.595 18.000 C 387.726 18.000,387.833 18.150,387.833 18.333 C 387.833 18.556,387.944 18.667,388.167 18.667 C 388.444 18.667,388.500 18.778,388.500 19.333 C 388.500 19.889,388.556 20.000,388.833 20.000 C 389.127 20.000,389.167 20.111,389.167 20.932 C 389.167 21.724,389.217 21.878,389.500 21.952 C 389.803 22.031,389.833 22.179,389.833 23.583 C 389.833 24.976,389.865 25.136,390.159 25.213 C 390.572 25.321,390.600 25.926,390.537 33.523 C 390.493 38.946,390.481 39.133,390.162 39.216 C 389.866 39.294,389.833 39.449,389.833 40.781 C 389.833 42.053,389.787 42.299,389.500 42.545 C 389.230 42.776,389.167 43.036,389.167 43.915 C 389.167 44.889,389.133 45.000,388.833 45.000 C 388.556 45.000,388.500 45.111,388.500 45.667 C 388.500 46.222,388.444 46.333,388.167 46.333 C 387.944 46.333,387.833 46.444,387.833 46.667 C 387.833 46.850,387.726 47.000,387.595 47.000 C 387.463 47.000,387.310 47.143,387.255 47.318 C 387.199 47.493,387.051 47.675,386.926 47.723 C 386.801 47.771,386.648 48.037,386.587 48.315 C 386.525 48.601,386.338 48.862,386.155 48.920 C 385.978 48.977,385.833 49.130,385.833 49.261 C 385.833 49.415,385.657 49.500,385.339 49.500 C 385.016 49.500,384.783 49.615,384.667 49.833 C 384.535 50.079,384.318 50.167,383.841 50.167 C 383.032 50.167,382.667 50.302,382.667 50.601 C 382.667 50.729,382.610 50.835,382.542 50.837 C 382.473 50.839,381.468 50.858,380.309 50.879 C 378.571 50.910,378.145 50.968,377.879 51.208 C 377.416 51.628,366.939 51.659,366.705 51.241 C 366.598 51.049,366.165 50.957,365.030 50.883 L 363.500 50.784 363.500 32.827 L 363.500 14.870 364.092 14.759 C 364.418 14.698,364.726 14.540,364.777 14.407 C 364.912 14.056,378.667 14.044,378.667 14.396 M132.701 16.780 C 131.540 16.830,131.128 16.907,131.058 17.090 C 130.985 17.280,130.612 17.334,129.357 17.335 C 127.369 17.337,126.500 17.470,126.500 17.772 C 126.500 17.924,126.292 18.001,125.875 18.002 C 124.773 18.005,124.014 18.195,123.920 18.490 C 123.871 18.644,123.531 18.902,123.165 19.064 C 122.721 19.260,122.500 19.464,122.500 19.679 C 122.500 19.942,122.381 20.000,121.833 20.000 C 121.278 20.000,121.167 20.056,121.167 20.333 C 121.167 20.517,121.058 20.667,120.924 20.667 C 120.791 20.667,120.495 20.835,120.268 21.042 C 119.476 21.759,118.946 22.167,118.807 22.167 C 118.730 22.167,118.667 22.277,118.667 22.411 C 118.667 22.545,118.517 22.735,118.333 22.833 C 118.133 22.940,118.000 23.182,118.000 23.438 C 118.000 23.724,117.890 23.893,117.667 23.952 C 117.455 24.007,117.333 24.179,117.333 24.422 C 117.333 24.979,117.165 25.333,116.899 25.333 C 116.726 25.333,116.667 25.590,116.667 26.333 C 116.667 27.222,116.630 27.333,116.333 27.333 C 116.041 27.333,116.000 27.444,116.000 28.239 C 116.000 28.998,115.946 29.161,115.667 29.250 C 115.359 29.348,115.333 29.502,115.333 31.261 C 115.333 32.964,115.302 33.167,115.042 33.168 C 114.114 33.171,114.000 33.858,114.000 39.446 C 114.000 45.094,113.990 45.031,115.037 45.801 C 115.288 45.986,115.333 46.284,115.333 47.759 C 115.333 49.389,115.355 49.500,115.667 49.500 C 115.963 49.500,116.000 49.611,116.000 50.500 C 116.000 51.389,116.037 51.500,116.333 51.500 C 116.630 51.500,116.667 51.611,116.667 52.500 C 116.667 53.267,116.724 53.500,116.911 53.500 C 117.045 53.500,117.235 53.649,117.332 53.832 C 117.430 54.014,117.597 54.145,117.703 54.123 C 117.810 54.101,117.927 54.221,117.963 54.389 C 118.021 54.655,117.980 54.671,117.640 54.509 L 117.250 54.324 117.625 54.599 C 117.831 54.750,118.000 54.980,118.000 55.109 C 118.000 55.238,118.110 55.386,118.244 55.437 C 118.378 55.489,118.533 55.674,118.588 55.849 C 118.662 56.080,118.845 56.167,119.261 56.167 C 119.674 56.167,119.833 56.241,119.833 56.432 C 119.833 56.578,119.969 56.733,120.135 56.777 C 120.301 56.820,120.508 57.090,120.594 57.377 C 120.705 57.747,120.887 57.934,121.224 58.022 C 121.485 58.090,121.792 58.274,121.906 58.431 C 122.086 58.676,122.498 58.770,123.625 58.823 C 123.740 58.829,123.833 58.946,123.833 59.083 C 123.833 59.285,124.093 59.333,125.167 59.333 C 126.389 59.333,126.500 59.361,126.500 59.667 C 126.500 59.986,126.611 60.000,129.072 60.000 C 131.498 60.000,131.650 60.019,131.750 60.333 C 131.915 60.855,140.649 60.855,140.785 60.333 C 140.867 60.020,141.012 60.000,143.186 60.000 C 145.278 60.000,145.532 59.968,145.833 59.667 C 146.080 59.420,146.389 59.333,147.026 59.333 C 147.938 59.333,147.816 59.413,149.625 57.627 C 149.831 57.424,150.000 57.162,150.000 57.045 C 150.000 56.929,150.079 56.833,150.177 56.833 C 150.274 56.833,150.307 56.759,150.251 56.669 C 150.193 56.574,150.260 56.546,150.408 56.603 C 150.612 56.681,150.667 56.576,150.667 56.101 C 150.667 55.611,150.728 55.500,151.000 55.500 C 151.299 55.500,151.333 55.389,151.333 54.434 C 151.333 53.641,151.397 53.344,151.583 53.273 C 151.721 53.220,151.833 53.033,151.833 52.856 C 151.833 52.680,151.721 52.492,151.583 52.440 C 151.288 52.326,151.241 51.325,151.519 51.048 C 151.763 50.804,151.539 50.428,151.277 50.641 C 151.170 50.727,149.984 50.826,148.640 50.859 C 146.695 50.908,146.135 50.975,145.890 51.189 C 145.208 51.786,129.769 51.741,129.612 51.141 C 129.547 50.893,129.368 50.833,128.688 50.833 C 128.016 50.833,127.809 50.766,127.667 50.500 C 127.555 50.291,127.318 50.167,127.031 50.167 C 126.693 50.167,126.519 50.047,126.367 49.708 C 125.950 48.783,125.643 48.333,125.430 48.333 C 125.278 48.333,125.185 47.969,125.126 47.138 C 125.062 46.251,124.963 45.885,124.743 45.724 C 124.511 45.555,124.429 45.202,124.372 44.128 C 124.320 43.132,124.226 42.692,124.035 42.542 C 123.822 42.375,126.529 42.333,137.717 42.333 C 151.483 42.333,151.667 42.329,151.872 42.000 C 151.987 41.817,152.212 41.667,152.373 41.667 C 152.597 41.667,152.667 41.529,152.667 41.083 C 152.667 40.722,152.794 40.373,153.000 40.167 C 153.306 39.861,153.333 39.611,153.333 37.167 C 153.333 34.611,153.319 34.500,153.000 34.500 C 152.678 34.500,152.667 34.389,152.667 31.250 C 152.667 28.111,152.655 28.000,152.333 28.000 C 152.028 28.000,152.000 27.889,152.000 26.667 C 152.000 25.444,151.972 25.333,151.667 25.333 C 151.378 25.333,151.333 25.222,151.333 24.501 C 151.333 23.850,151.261 23.624,151.000 23.461 C 150.780 23.324,150.667 23.073,150.667 22.721 C 150.667 22.336,150.575 22.160,150.333 22.083 C 150.150 22.025,150.000 21.873,150.000 21.745 C 150.000 21.617,149.850 21.431,149.667 21.333 C 149.483 21.235,149.333 21.045,149.333 20.911 C 149.333 20.777,149.221 20.667,149.083 20.667 C 148.946 20.667,148.691 20.535,148.517 20.375 C 147.697 19.617,147.279 19.333,146.986 19.333 C 146.810 19.333,146.667 19.229,146.667 19.101 C 146.667 18.974,146.460 18.818,146.208 18.755 C 145.956 18.691,145.616 18.496,145.452 18.320 C 145.281 18.136,144.932 18.000,144.632 18.000 C 144.345 18.000,143.965 17.869,143.787 17.708 C 143.528 17.473,143.080 17.405,141.483 17.357 C 139.926 17.311,139.500 17.248,139.500 17.066 C 139.500 16.887,139.202 16.833,138.208 16.832 C 137.498 16.832,136.317 16.805,135.583 16.773 C 134.850 16.741,133.553 16.744,132.701 16.780 M179.618 16.779 C 178.235 16.830,177.797 16.901,177.725 17.089 C 177.651 17.282,177.269 17.333,175.920 17.333 C 173.956 17.333,173.167 17.453,173.167 17.750 C 173.167 17.882,172.838 17.986,172.273 18.033 C 171.694 18.081,171.216 18.235,170.917 18.470 C 170.663 18.670,170.334 18.836,170.186 18.839 C 169.813 18.847,169.167 19.415,169.167 19.735 C 169.167 19.932,168.999 20.000,168.512 20.000 C 167.959 20.000,167.848 20.059,167.803 20.375 C 167.768 20.625,167.653 20.734,167.458 20.701 C 167.260 20.668,167.167 20.761,167.167 20.993 C 167.167 21.222,167.058 21.333,166.833 21.333 C 166.611 21.333,166.500 21.444,166.500 21.667 C 166.500 21.889,166.389 22.000,166.167 22.000 C 165.944 22.000,165.833 22.111,165.833 22.333 C 165.833 22.527,165.722 22.667,165.568 22.667 C 165.422 22.667,165.263 22.817,165.215 23.000 C 165.167 23.183,165.022 23.333,164.893 23.333 C 164.764 23.333,164.587 23.521,164.500 23.750 C 164.413 23.979,164.268 24.167,164.178 24.167 C 164.089 24.167,163.963 24.444,163.899 24.784 C 163.836 25.123,163.645 25.550,163.475 25.732 C 163.287 25.934,163.167 26.310,163.167 26.698 C 163.167 27.128,163.092 27.333,162.936 27.333 C 162.665 27.333,162.505 27.838,162.502 28.708 C 162.501 29.152,162.427 29.333,162.250 29.333 C 162.112 29.333,162.000 29.467,162.000 29.630 C 162.000 29.793,161.871 30.109,161.714 30.334 C 161.510 30.625,161.409 31.184,161.361 32.292 C 161.304 33.597,161.244 33.870,160.980 34.011 C 160.500 34.268,160.495 44.401,160.975 45.019 C 161.208 45.320,161.310 45.841,161.395 47.157 C 161.506 48.892,161.729 49.500,162.256 49.500 C 162.391 49.500,162.485 49.880,162.531 50.603 C 162.581 51.389,162.683 51.767,162.884 51.914 C 163.040 52.027,163.168 52.262,163.169 52.435 C 163.173 53.017,163.366 53.482,163.624 53.533 C 163.765 53.561,163.902 53.787,163.928 54.035 C 163.954 54.285,164.242 54.754,164.571 55.082 C 164.899 55.410,165.167 55.745,165.167 55.828 C 165.167 55.910,165.317 56.025,165.500 56.083 C 165.683 56.142,165.833 56.252,165.833 56.328 C 165.833 56.405,166.097 56.623,166.419 56.813 C 166.741 57.003,167.074 57.338,167.157 57.558 C 167.264 57.839,167.487 57.992,167.905 58.070 C 168.261 58.137,168.500 58.278,168.500 58.422 C 168.500 58.574,168.746 58.702,169.167 58.769 C 169.569 58.834,169.833 58.967,169.833 59.105 C 169.833 59.279,170.148 59.333,171.167 59.333 C 172.389 59.333,172.500 59.361,172.500 59.667 C 172.500 59.984,172.611 60.000,174.750 60.000 C 176.889 60.000,177.000 60.016,177.000 60.333 C 177.000 60.659,177.111 60.667,181.583 60.667 C 186.056 60.667,186.167 60.659,186.167 60.333 C 186.167 60.014,186.278 60.000,188.766 60.000 C 191.224 60.000,191.369 59.982,191.452 59.667 C 191.525 59.385,191.679 59.333,192.436 59.333 C 193.104 59.333,193.333 59.272,193.333 59.095 C 193.333 58.963,193.479 58.809,193.658 58.753 C 193.837 58.696,194.029 58.503,194.086 58.325 C 194.143 58.146,194.297 58.000,194.428 58.000 C 194.590 58.000,194.667 57.812,194.667 57.417 C 194.667 56.944,194.730 56.833,195.000 56.833 C 195.278 56.833,195.333 56.722,195.333 56.167 C 195.333 55.611,195.389 55.500,195.667 55.500 C 196.219 55.500,196.179 51.087,195.625 50.938 C 194.478 50.631,191.500 50.870,191.500 51.269 C 191.500 51.665,177.726 51.606,177.287 51.208 C 177.057 51.000,176.685 50.917,175.983 50.917 C 175.162 50.917,175.001 50.869,175.000 50.627 C 175.000 50.418,174.814 50.308,174.333 50.231 C 173.931 50.166,173.667 50.033,173.667 49.895 C 173.667 49.770,173.517 49.667,173.333 49.667 C 173.111 49.667,173.000 49.556,173.000 49.333 C 173.000 49.111,172.889 49.000,172.667 49.000 C 172.444 49.000,172.333 48.889,172.333 48.667 C 172.333 48.481,172.222 48.333,172.083 48.333 C 171.946 48.333,171.833 48.196,171.833 48.028 C 171.833 47.860,171.781 47.670,171.717 47.606 C 171.653 47.542,171.621 47.155,171.646 46.746 C 171.695 45.948,171.202 45.000,170.739 45.000 C 170.371 45.000,170.382 33.914,170.750 33.773 C 170.887 33.720,171.000 33.565,171.000 33.428 C 171.000 33.291,171.150 33.098,171.333 33.000 C 171.711 32.798,171.768 32.343,171.458 32.009 C 171.291 31.828,171.293 31.809,171.469 31.909 C 171.608 31.987,171.677 31.950,171.656 31.808 C 171.588 31.355,171.881 30.500,172.104 30.500 C 172.259 30.500,172.333 30.291,172.333 29.853 C 172.333 29.346,172.406 29.187,172.667 29.118 C 172.922 29.052,173.000 28.891,173.000 28.432 C 173.000 27.944,173.062 27.833,173.333 27.833 C 173.556 27.833,173.667 27.722,173.667 27.500 C 173.667 27.222,173.778 27.167,174.333 27.167 C 174.815 27.167,175.000 27.097,175.000 26.917 C 175.000 26.741,175.178 26.667,175.599 26.667 C 176.041 26.667,176.219 26.586,176.278 26.359 C 176.413 25.845,193.965 25.690,194.610 26.197 C 194.727 26.289,194.841 26.289,194.898 26.196 C 194.950 26.112,195.220 25.998,195.497 25.942 L 196.000 25.842 196.000 23.405 C 196.000 21.109,195.981 20.964,195.667 20.882 C 195.451 20.825,195.333 20.654,195.333 20.397 C 195.333 20.111,195.240 20.000,195.000 20.000 C 194.738 20.000,194.667 19.889,194.667 19.484 C 194.667 19.109,194.576 18.945,194.333 18.882 C 194.150 18.834,194.000 18.658,194.000 18.491 C 194.000 18.259,193.823 18.161,193.250 18.075 C 192.838 18.013,192.500 17.903,192.500 17.831 C 192.500 17.543,191.367 17.333,189.808 17.333 C 188.460 17.333,188.167 17.289,188.167 17.083 C 188.167 16.885,187.929 16.833,187.026 16.833 C 186.399 16.833,184.880 16.806,183.651 16.774 C 182.422 16.741,180.607 16.743,179.618 16.779 M271.583 16.778 C 270.433 16.822,269.864 16.912,269.745 17.069 C 269.622 17.233,269.003 17.313,267.523 17.357 C 265.879 17.405,265.434 17.470,265.276 17.686 C 265.144 17.867,264.733 17.979,264.015 18.031 C 263.181 18.092,262.887 18.187,262.657 18.471 C 262.495 18.670,262.263 18.836,262.140 18.839 C 261.804 18.847,261.167 19.434,261.167 19.735 C 261.167 19.933,260.998 20.000,260.500 20.000 C 259.944 20.000,259.833 20.056,259.833 20.333 C 259.833 20.575,259.722 20.667,259.430 20.667 C 258.868 20.667,258.500 20.831,258.500 21.082 C 258.500 21.199,258.350 21.334,258.167 21.382 C 257.983 21.430,257.833 21.580,257.833 21.715 C 257.833 21.850,257.683 22.000,257.500 22.048 C 257.275 22.107,257.167 22.276,257.167 22.566 C 257.167 22.817,257.027 23.084,256.833 23.205 C 256.650 23.320,256.500 23.545,256.500 23.707 C 256.500 23.889,256.374 24.000,256.167 24.000 C 255.889 24.000,255.833 24.111,255.833 24.667 C 255.833 25.246,255.784 25.334,255.458 25.336 C 254.829 25.340,254.625 25.594,254.539 26.482 C 254.489 27.011,254.378 27.333,254.248 27.333 C 253.978 27.333,253.838 27.871,253.836 28.918 C 253.834 29.571,253.761 29.799,253.500 29.961 C 253.200 30.149,253.167 30.350,253.167 32.001 C 253.167 33.456,253.119 33.833,252.934 33.833 C 252.531 33.833,252.500 34.244,252.502 39.555 C 252.505 44.925,252.547 45.500,252.936 45.500 C 253.118 45.500,253.167 45.869,253.167 47.236 C 253.167 49.110,253.241 49.500,253.601 49.500 C 253.772 49.500,253.833 49.747,253.833 50.432 C 253.833 51.224,253.883 51.378,254.167 51.452 C 254.410 51.515,254.501 51.680,254.502 52.061 C 254.506 52.835,254.676 53.333,254.936 53.333 C 255.063 53.333,255.167 53.409,255.167 53.501 C 255.167 53.593,255.352 53.830,255.578 54.026 C 255.804 54.223,255.946 54.452,255.894 54.536 C 255.842 54.620,255.957 54.730,256.150 54.781 C 256.349 54.833,256.500 55.007,256.500 55.186 C 256.500 55.385,256.618 55.500,256.823 55.500 C 257.065 55.500,257.159 55.635,257.198 56.042 C 257.243 56.508,257.332 56.604,257.845 56.730 C 258.195 56.817,258.504 57.022,258.595 57.229 C 258.680 57.422,258.991 57.731,259.285 57.915 C 259.580 58.099,259.823 58.336,259.827 58.441 C 259.835 58.672,260.220 58.833,260.764 58.833 C 261.011 58.833,261.167 58.930,261.167 59.083 C 261.167 59.275,261.377 59.333,262.064 59.333 C 262.821 59.333,262.975 59.385,263.048 59.667 C 263.126 59.965,263.276 60.000,264.465 60.000 C 265.654 60.000,265.804 60.035,265.882 60.333 C 265.967 60.660,266.109 60.667,272.895 60.667 C 279.651 60.667,279.826 60.658,280.000 60.333 C 280.158 60.038,280.349 60.000,281.688 60.000 C 283.058 60.000,283.206 59.969,283.285 59.667 C 283.353 59.406,283.512 59.333,284.019 59.333 C 284.456 59.333,284.667 59.259,284.667 59.105 C 284.667 58.958,284.936 58.846,285.428 58.791 C 285.905 58.737,286.312 58.573,286.518 58.353 C 286.699 58.159,286.918 58.000,287.005 58.000 C 287.248 58.000,288.000 57.299,288.000 57.073 C 288.000 56.962,288.150 56.833,288.333 56.785 C 288.517 56.737,288.667 56.578,288.667 56.432 C 288.667 56.278,288.806 56.167,289.000 56.167 C 289.222 56.167,289.333 56.056,289.333 55.833 C 289.333 55.645,289.444 55.500,289.589 55.500 C 289.729 55.500,289.893 55.369,289.953 55.208 C 290.012 55.048,290.203 54.815,290.375 54.691 C 290.548 54.567,290.649 54.361,290.600 54.233 C 290.542 54.082,290.626 54.000,290.839 54.000 C 291.019 54.000,291.167 53.927,291.167 53.839 C 291.167 53.750,291.067 53.716,290.944 53.762 C 290.816 53.812,290.722 53.734,290.722 53.578 C 290.722 53.399,290.825 53.336,291.028 53.389 C 291.245 53.446,291.333 53.377,291.333 53.151 C 291.333 52.976,291.437 52.833,291.564 52.833 C 291.795 52.833,291.993 52.350,291.998 51.776 C 291.999 51.607,292.150 51.279,292.333 51.045 C 292.573 50.741,292.667 50.369,292.667 49.728 C 292.667 49.074,292.729 48.833,292.899 48.833 C 293.247 48.833,293.333 48.449,293.333 46.903 C 293.333 45.824,293.386 45.500,293.563 45.500 C 293.951 45.500,294.000 44.670,293.998 38.188 C 293.995 31.746,293.960 31.167,293.564 31.167 C 293.385 31.167,293.333 30.833,293.333 29.668 C 293.333 28.350,293.293 28.144,293.000 27.961 C 292.739 27.799,292.666 27.571,292.664 26.918 C 292.661 25.848,292.521 25.333,292.231 25.333 C 292.077 25.333,292.000 25.133,292.000 24.734 C 292.000 24.276,291.922 24.115,291.667 24.048 C 291.454 23.993,291.333 23.821,291.333 23.572 C 291.333 23.359,291.146 22.982,290.917 22.734 C 290.688 22.487,290.500 22.221,290.500 22.142 C 290.500 22.064,290.396 22.000,290.269 22.000 C 290.143 22.000,290.000 21.850,289.952 21.667 C 289.904 21.483,289.754 21.333,289.618 21.333 C 289.483 21.333,289.333 21.183,289.285 21.000 C 289.237 20.817,289.087 20.667,288.952 20.667 C 288.816 20.667,288.666 20.517,288.618 20.333 C 288.552 20.078,288.391 20.000,287.932 20.000 C 287.469 20.000,287.333 19.933,287.333 19.703 C 287.333 19.360,286.662 18.924,285.875 18.756 C 285.577 18.692,285.333 18.543,285.333 18.424 C 285.333 18.186,284.616 18.000,283.701 18.000 C 283.371 18.000,282.967 17.871,282.788 17.708 C 282.532 17.477,282.091 17.405,280.650 17.360 C 279.224 17.316,278.833 17.253,278.833 17.069 C 278.833 16.888,278.554 16.833,277.625 16.832 C 276.960 16.832,275.704 16.805,274.833 16.773 C 273.962 16.741,272.500 16.743,271.583 16.778 M137.875 25.332 C 139.295 25.333,139.667 25.382,139.667 25.566 C 139.667 25.821,140.017 26.000,140.519 26.000 C 140.698 26.000,140.887 26.113,140.940 26.250 C 140.992 26.387,141.117 26.500,141.215 26.500 C 141.515 26.500,142.167 27.205,142.167 27.529 C 142.167 27.717,142.288 27.833,142.483 27.833 C 142.767 27.833,142.806 27.991,142.858 29.347 C 142.905 30.551,142.976 30.904,143.208 31.074 C 143.620 31.375,143.644 33.833,143.234 33.833 C 143.088 33.833,142.930 33.983,142.882 34.167 C 142.796 34.495,142.654 34.500,133.844 34.500 L 124.893 34.500 124.551 34.106 L 124.208 33.712 124.604 32.898 C 124.838 32.417,125.045 31.605,125.110 30.917 C 125.178 30.205,125.314 29.681,125.461 29.573 C 125.593 29.476,125.740 29.045,125.789 28.615 C 125.859 27.994,125.941 27.833,126.188 27.833 C 126.389 27.833,126.500 27.714,126.500 27.500 C 126.500 27.317,126.604 27.167,126.732 27.167 C 126.860 27.167,127.008 27.054,127.060 26.917 C 127.113 26.779,127.252 26.667,127.370 26.666 C 127.487 26.666,127.799 26.480,128.063 26.253 C 128.327 26.026,128.613 25.883,128.698 25.936 C 128.959 26.097,129.667 25.841,129.667 25.585 C 129.667 25.328,132.654 25.154,135.000 25.275 C 135.596 25.306,136.890 25.331,137.875 25.332 M276.953 25.578 C 277.049 25.749,277.561 25.861,278.670 25.953 C 279.539 26.025,280.225 26.150,280.194 26.231 C 280.111 26.451,280.522 26.661,281.042 26.664 C 281.337 26.666,281.500 26.756,281.500 26.917 C 281.500 27.056,281.648 27.167,281.833 27.167 C 282.056 27.167,282.167 27.278,282.167 27.500 C 282.167 27.722,282.278 27.833,282.500 27.833 C 282.778 27.833,282.833 27.944,282.833 28.500 C 282.833 29.056,282.889 29.167,283.167 29.167 C 283.459 29.167,283.500 29.278,283.500 30.075 C 283.500 30.724,283.574 31.025,283.760 31.129 C 283.963 31.242,284.048 31.753,284.152 33.466 C 284.241 34.925,284.363 35.752,284.518 35.938 C 284.901 36.400,284.845 40.526,284.450 40.964 C 284.201 41.239,284.151 41.578,284.162 42.940 C 284.176 44.776,284.063 45.593,283.727 46.079 C 283.600 46.263,283.500 46.830,283.500 47.370 C 283.500 48.222,283.462 48.333,283.167 48.333 C 282.897 48.333,282.833 48.444,282.833 48.917 C 282.833 49.339,282.760 49.500,282.568 49.500 C 282.422 49.500,282.263 49.650,282.215 49.833 C 282.167 50.018,281.988 50.167,281.814 50.167 C 281.641 50.167,281.509 50.223,281.520 50.292 C 281.580 50.675,281.457 50.833,281.097 50.833 C 280.538 50.833,280.167 50.997,280.167 51.244 C 280.167 51.381,279.765 51.485,278.983 51.551 C 277.736 51.655,277.016 51.986,276.877 52.517 C 276.771 52.924,269.667 53.020,269.667 52.615 C 269.667 52.213,268.680 51.653,267.787 51.548 C 267.308 51.491,266.837 51.337,266.740 51.206 C 266.643 51.074,266.218 50.927,265.796 50.880 C 265.229 50.816,265.007 50.711,264.946 50.480 C 264.901 50.308,264.754 50.167,264.618 50.167 C 264.483 50.167,264.333 50.017,264.285 49.833 C 264.237 49.650,264.078 49.500,263.932 49.500 C 263.740 49.500,263.667 49.339,263.667 48.917 C 263.667 48.444,263.603 48.333,263.333 48.333 C 263.028 48.333,263.000 48.222,263.000 47.000 C 263.000 45.778,262.972 45.667,262.667 45.667 C 262.339 45.667,262.333 45.556,262.333 39.333 C 262.333 34.031,262.371 33.000,262.566 33.000 C 262.892 33.000,263.000 32.624,263.000 31.486 C 263.000 30.611,263.038 30.500,263.333 30.500 C 263.609 30.500,263.667 30.389,263.667 29.853 C 263.667 29.346,263.739 29.187,264.000 29.118 C 264.183 29.070,264.333 28.912,264.333 28.766 C 264.333 28.473,264.904 27.833,265.165 27.833 C 265.256 27.833,265.424 27.683,265.539 27.500 C 265.653 27.317,265.844 27.167,265.962 27.167 C 266.080 27.167,266.217 27.063,266.266 26.936 C 266.314 26.810,266.649 26.659,267.010 26.601 C 267.433 26.533,267.667 26.408,267.667 26.248 C 267.667 26.054,267.902 26.000,268.752 26.000 C 269.630 26.000,269.891 25.937,270.122 25.667 C 270.500 25.225,276.711 25.144,276.953 25.578 " stroke="none" fill="#fcfcfc" fill-rule="evenodd"></path><path id="path1" d="M60.833 3.333 C 60.833 3.642,60.722 3.667,59.339 3.667 C 58.016 3.667,57.825 3.705,57.667 4.000 C 57.519 4.276,57.318 4.333,56.494 4.333 C 55.611 4.333,55.500 4.371,55.500 4.667 C 55.500 4.959,55.389 5.000,54.595 5.000 C 53.836 5.000,53.672 5.054,53.583 5.333 C 53.506 5.578,53.331 5.667,52.925 5.667 C 52.512 5.667,52.350 5.751,52.285 6.000 C 52.233 6.200,52.058 6.333,51.847 6.333 C 51.654 6.333,51.368 6.483,51.211 6.667 C 51.054 6.850,50.793 7.000,50.630 7.000 C 50.467 7.000,50.333 7.104,50.333 7.231 C 50.333 7.364,50.085 7.509,49.755 7.571 C 49.436 7.631,49.117 7.776,49.046 7.894 C 48.975 8.012,48.785 8.157,48.625 8.216 C 48.465 8.275,48.333 8.438,48.333 8.578 C 48.333 8.738,48.181 8.833,47.925 8.833 C 47.701 8.833,47.315 9.021,47.068 9.250 C 46.820 9.479,46.554 9.667,46.476 9.667 C 46.397 9.667,46.333 9.770,46.333 9.897 C 46.333 10.024,46.183 10.167,46.000 10.215 C 45.817 10.263,45.667 10.422,45.667 10.568 C 45.667 10.714,45.547 10.833,45.401 10.833 C 45.255 10.833,45.096 10.983,45.048 11.167 C 45.000 11.350,44.850 11.500,44.715 11.500 C 44.580 11.500,44.430 11.650,44.382 11.833 C 44.334 12.017,44.184 12.167,44.048 12.167 C 43.913 12.167,43.763 12.317,43.715 12.500 C 43.667 12.683,43.517 12.833,43.382 12.833 C 43.246 12.833,43.096 12.983,43.048 13.167 C 43.000 13.350,42.850 13.500,42.715 13.500 C 42.580 13.500,42.430 13.650,42.382 13.833 C 42.334 14.017,42.191 14.167,42.064 14.167 C 41.937 14.167,41.833 14.277,41.833 14.411 C 41.833 14.545,41.687 14.733,41.507 14.829 C 41.325 14.927,41.133 15.261,41.072 15.585 C 41.006 15.939,40.866 16.167,40.716 16.167 C 40.580 16.167,40.429 16.318,40.381 16.504 C 40.312 16.767,40.243 16.799,40.065 16.652 C 39.680 16.332,39.225 16.604,39.547 16.962 C 39.853 17.303,39.746 18.167,39.397 18.167 C 39.246 18.167,39.167 18.362,39.167 18.731 C 39.167 19.154,39.084 19.316,38.833 19.382 C 38.584 19.447,38.500 19.610,38.499 20.026 C 38.498 20.457,38.403 20.627,38.082 20.776 C 37.854 20.882,37.667 20.909,37.667 20.837 C 37.667 20.765,37.517 20.666,37.333 20.618 C 37.150 20.570,37.000 20.412,37.000 20.266 C 37.000 20.075,36.841 20.000,36.436 20.000 C 36.012 20.000,35.851 19.917,35.785 19.667 C 35.733 19.467,35.558 19.333,35.349 19.333 C 35.150 19.333,35.000 19.226,35.000 19.083 C 35.000 18.946,34.899 18.833,34.776 18.833 C 34.653 18.833,34.422 18.690,34.264 18.515 C 34.105 18.340,33.779 18.147,33.540 18.087 C 33.300 18.027,33.020 17.863,32.917 17.722 C 32.795 17.556,32.341 17.435,31.615 17.377 C 30.888 17.319,30.500 17.216,30.500 17.081 C 30.500 16.865,29.781 16.667,29.000 16.667 C 28.747 16.667,28.447 16.554,28.333 16.417 C 28.021 16.040,17.500 16.040,17.500 16.417 C 17.500 16.581,17.336 16.667,17.021 16.667 C 16.216 16.667,15.500 16.864,15.500 17.085 C 15.500 17.225,15.135 17.318,14.397 17.365 C 13.631 17.414,13.232 17.518,13.095 17.706 C 12.985 17.856,12.700 18.027,12.460 18.087 C 12.221 18.147,11.895 18.340,11.736 18.515 C 11.578 18.690,11.347 18.833,11.224 18.833 C 11.101 18.833,11.000 18.946,11.000 19.083 C 11.000 19.226,10.850 19.333,10.651 19.333 C 10.442 19.333,10.267 19.467,10.215 19.667 C 10.149 19.919,9.988 20.000,9.548 20.000 C 9.118 20.000,8.947 20.082,8.886 20.318 C 8.840 20.493,8.659 20.673,8.485 20.719 C 8.310 20.765,8.167 20.913,8.167 21.048 C 8.167 21.184,8.017 21.334,7.833 21.382 C 7.650 21.430,7.500 21.573,7.500 21.700 C 7.500 21.827,7.258 22.003,6.962 22.091 C 6.557 22.211,6.387 22.383,6.271 22.792 C 6.187 23.090,6.017 23.333,5.893 23.333 C 5.768 23.333,5.667 23.483,5.667 23.667 C 5.667 23.889,5.556 24.000,5.333 24.000 C 5.111 24.000,5.000 24.111,5.000 24.333 C 5.000 24.556,4.889 24.667,4.667 24.667 C 4.444 24.667,4.333 24.778,4.333 25.000 C 4.333 25.222,4.222 25.333,4.000 25.333 C 3.785 25.333,3.667 25.444,3.667 25.647 C 3.667 25.821,3.518 26.000,3.333 26.048 C 3.078 26.115,3.000 26.276,3.000 26.734 C 3.000 27.222,2.938 27.333,2.667 27.333 C 2.399 27.333,2.333 27.444,2.333 27.897 C 2.333 28.321,2.250 28.483,2.000 28.548 C 1.747 28.614,1.667 28.776,1.667 29.215 C 1.667 29.654,1.586 29.816,1.333 29.882 C 1.051 29.955,1.000 30.109,1.000 30.882 C 1.000 31.654,0.949 31.808,0.667 31.882 C 0.376 31.958,0.333 32.109,0.333 33.068 C 0.333 33.689,0.261 34.167,0.167 34.167 C 0.059 34.167,0.000 36.278,0.000 40.167 C 0.000 44.056,0.059 46.167,0.167 46.167 C 0.259 46.167,0.333 46.611,0.333 47.167 C 0.333 48.056,0.370 48.167,0.667 48.167 C 0.963 48.167,1.000 48.278,1.000 49.167 C 1.000 50.056,1.037 50.167,1.333 50.167 C 1.611 50.167,1.667 50.278,1.667 50.833 C 1.667 51.389,1.722 51.500,2.000 51.500 C 2.278 51.500,2.333 51.611,2.333 52.167 C 2.333 52.722,2.389 52.833,2.667 52.833 C 2.936 52.833,3.000 52.944,3.000 53.409 C 3.000 54.018,3.625 54.833,4.091 54.833 C 4.224 54.833,4.333 54.983,4.333 55.167 C 4.333 55.389,4.444 55.500,4.667 55.500 C 4.938 55.500,5.000 55.611,5.000 56.099 C 5.000 56.558,5.078 56.718,5.333 56.785 C 5.518 56.833,5.667 57.012,5.667 57.186 C 5.667 57.359,5.782 57.500,5.922 57.500 C 6.062 57.500,6.227 57.631,6.289 57.792 C 6.350 57.952,6.580 58.233,6.800 58.417 C 7.020 58.600,7.322 58.881,7.471 59.042 C 7.622 59.205,7.981 59.333,8.287 59.333 C 8.722 59.333,8.833 59.401,8.833 59.667 C 8.833 59.889,8.944 60.000,9.167 60.000 C 9.389 60.000,9.500 60.111,9.500 60.333 C 9.500 60.611,9.611 60.667,10.167 60.667 C 10.657 60.667,10.833 60.735,10.833 60.925 C 10.833 61.354,11.698 61.989,12.292 61.995 C 12.720 61.999,12.833 62.069,12.833 62.333 C 12.833 62.630,12.944 62.667,13.833 62.667 C 14.722 62.667,14.833 62.704,14.833 63.000 C 14.833 63.303,14.944 63.333,16.072 63.333 C 17.164 63.333,17.323 63.373,17.417 63.667 C 17.515 63.975,17.669 64.000,19.511 64.000 C 20.726 64.000,21.500 64.065,21.500 64.167 C 21.500 64.277,31.333 64.333,50.667 64.333 C 70.000 64.333,79.833 64.277,79.833 64.167 C 79.833 64.067,80.468 64.000,81.405 64.000 C 82.831 64.000,82.987 63.969,83.083 63.667 C 83.172 63.387,83.336 63.333,84.095 63.333 C 84.889 63.333,85.000 63.292,85.000 63.000 C 85.000 62.729,85.111 62.667,85.599 62.667 C 86.058 62.667,86.218 62.589,86.285 62.333 C 86.333 62.149,86.512 62.000,86.686 62.000 C 86.889 62.000,87.000 61.882,87.000 61.667 C 87.000 61.444,87.111 61.333,87.333 61.333 C 87.556 61.333,87.667 61.222,87.667 61.000 C 87.667 60.778,87.778 60.667,88.000 60.667 C 88.222 60.667,88.333 60.556,88.333 60.333 C 88.333 60.111,88.444 60.000,88.667 60.000 C 88.889 60.000,89.000 59.889,89.000 59.667 C 89.000 59.444,89.111 59.333,89.333 59.333 C 89.517 59.333,89.667 59.232,89.667 59.107 C 89.667 58.983,89.908 58.812,90.203 58.728 C 90.608 58.612,90.778 58.441,90.894 58.037 C 90.979 57.742,91.152 57.500,91.279 57.500 C 91.406 57.500,91.559 57.369,91.619 57.208 C 91.679 57.048,91.864 56.819,92.031 56.699 C 92.200 56.577,92.333 56.274,92.333 56.010 C 92.333 55.679,92.433 55.513,92.667 55.452 C 92.919 55.386,93.000 55.224,93.000 54.785 C 93.000 54.346,93.081 54.184,93.333 54.118 C 93.589 54.052,93.667 53.891,93.667 53.432 C 93.667 53.049,93.745 52.833,93.885 52.833 C 94.104 52.833,94.833 51.969,94.833 51.710 C 94.833 51.635,94.983 51.446,95.167 51.289 C 95.437 51.058,95.500 50.797,95.500 49.918 C 95.500 48.944,95.534 48.833,95.833 48.833 C 96.126 48.833,96.167 48.722,96.167 47.928 C 96.167 47.169,96.221 47.005,96.500 46.917 C 96.779 46.828,96.833 46.664,96.833 45.911 C 96.833 45.182,96.897 44.978,97.167 44.833 C 97.469 44.672,97.500 44.484,97.500 42.827 C 97.500 41.194,97.531 41.000,97.793 41.000 C 98.403 41.000,98.538 40.385,98.685 36.947 C 98.772 34.911,98.901 33.536,99.017 33.396 C 99.150 33.236,99.155 33.103,99.034 32.958 C 98.939 32.843,98.807 31.680,98.740 30.373 C 98.615 27.900,98.434 27.333,97.772 27.333 C 97.543 27.333,97.500 27.122,97.500 26.000 C 97.500 24.778,97.472 24.667,97.167 24.667 C 96.889 24.667,96.833 24.556,96.833 24.000 C 96.833 23.444,96.778 23.333,96.500 23.333 C 96.206 23.333,96.167 23.222,96.167 22.401 C 96.167 21.609,96.117 21.456,95.833 21.382 C 95.581 21.316,95.500 21.154,95.500 20.715 C 95.500 20.276,95.419 20.114,95.167 20.048 C 94.928 19.986,94.833 19.821,94.833 19.465 C 94.833 19.109,94.739 18.944,94.500 18.882 C 94.317 18.834,94.167 18.688,94.167 18.559 C 94.167 18.429,94.054 18.280,93.917 18.227 C 93.779 18.174,93.667 18.027,93.667 17.900 C 93.667 17.773,93.517 17.576,93.333 17.461 C 93.150 17.347,93.000 17.127,93.000 16.974 C 93.000 16.514,92.813 16.167,92.566 16.167 C 92.438 16.167,92.333 16.017,92.333 15.833 C 92.333 15.611,92.222 15.500,92.000 15.500 C 91.778 15.500,91.667 15.389,91.667 15.167 C 91.667 14.951,91.556 14.833,91.352 14.833 C 91.124 14.833,91.007 14.672,90.928 14.250 C 90.867 13.929,90.754 13.667,90.676 13.667 C 90.499 13.667,89.500 12.800,89.500 12.647 C 89.500 12.476,88.612 11.500,88.456 11.500 C 88.381 11.500,88.158 11.350,87.962 11.167 C 87.765 10.983,87.468 10.833,87.302 10.833 C 87.136 10.833,87.000 10.724,87.000 10.591 C 87.000 10.277,86.223 9.500,85.909 9.500 C 85.776 9.500,85.667 9.350,85.667 9.167 C 85.667 8.951,85.556 8.833,85.353 8.833 C 85.179 8.833,85.000 8.684,84.952 8.500 C 84.885 8.245,84.724 8.167,84.266 8.167 C 83.770 8.167,83.667 8.107,83.667 7.819 C 83.667 7.614,83.582 7.502,83.458 7.545 C 83.344 7.584,83.033 7.437,82.768 7.216 C 82.503 6.996,82.178 6.857,82.045 6.908 C 81.894 6.966,81.769 6.875,81.715 6.667 C 81.667 6.484,81.517 6.333,81.382 6.333 C 81.246 6.333,81.096 6.183,81.048 6.000 C 80.984 5.752,80.821 5.667,80.417 5.667 C 80.012 5.667,79.850 5.581,79.785 5.333 C 79.711 5.050,79.558 5.000,78.766 5.000 C 77.944 5.000,77.833 4.960,77.833 4.667 C 77.833 4.370,77.722 4.333,76.833 4.333 C 75.944 4.333,75.833 4.296,75.833 4.000 C 75.833 3.694,75.722 3.667,74.500 3.667 C 73.278 3.667,73.167 3.639,73.167 3.333 C 73.167 3.006,73.056 3.000,67.000 3.000 C 60.944 3.000,60.833 3.006,60.833 3.333 " stroke="none" fill="#15b4f4" fill-rule="evenodd"></path><path id="path2" d="" stroke="none" fill="#bc100c8" fill-rule="evenodd"></path><path id="path3" d="" stroke="none" fill="#bc100c8" fill-rule="evenodd"></path><path id="path4" d="" stroke="none" fill="#bc100c8" fill-rule="evenodd"></path></g></svg>